<svg viewBox="0 0 11.1899 8.3833" xmlns="http://www.w3.org/2000/svg" xmlns:xlink="http://www.w3.org/1999/xlink" width="11.189919" height="8.383301" fill="none" customFrame="#000000">
	<defs>
		<linearGradient id="paint_linear_0" x1="7.45993233" x2="-5.74881172" y1="-5.07410049" y2="-1.82310057" gradientUnits="userSpaceOnUse">
			<stop stop-color="rgb(174.841,85.8593,234.162)" offset="0" stop-opacity="1" />
			<stop stop-color="rgb(1,129,203)" offset="1" stop-opacity="1" />
		</linearGradient>
	</defs>
	<path id="Vector" d="M3.46161 6.79496L1.12828 4.46163C1.06726 4.39987 0.994595 4.35083 0.914488 4.31737C0.834381 4.2839 0.748428 4.26667 0.661611 4.26667C0.574795 4.26667 0.488841 4.2839 0.408734 4.31737C0.328627 4.35083 0.25596 4.39987 0.194944 4.46163C0.133185 4.52264 0.0841502 4.59531 0.0506838 4.67542C0.0172174 4.75552 -1.52588e-05 4.84148 -1.52588e-05 4.92829C-1.52588e-05 5.01511 0.0172174 5.10106 0.0506838 5.18117C0.0841502 5.26128 0.133185 5.33394 0.194944 5.39496L2.98828 8.18829C3.24828 8.44829 3.66828 8.44829 3.92828 8.18829L10.9949 1.12829C11.0567 1.06728 11.1057 0.99461 11.1392 0.914503C11.1727 0.834396 11.1899 0.748443 11.1899 0.661626C11.1899 0.574809 11.1727 0.488856 11.1392 0.408749C11.1057 0.328642 11.0567 0.255975 10.9949 0.19496C10.9339 0.1332 10.8613 0.0841653 10.7812 0.0506989C10.701 0.0172325 10.6151 0 10.5283 0C10.4415 0 10.3555 0.0172325 10.2754 0.0506989C10.1953 0.0841653 10.1226 0.1332 10.0616 0.19496L3.46161 6.79496Z" fill="url(#paint_linear_0)" fill-rule="nonzero" />
</svg>
